<svg xmlns="http://www.w3.org/2000/svg" xmlns:oryx="http://oryx-editor.org" id="_A3A6EE6B-DEBB-46D6-9848-7DFDB22F1EB5" width="773" height="271" xmlns:xlink="http://www.w3.org/1999/xlink" xmlns:svg="http://www.w3.org/2000/svg"><defs><marker id="_20F5AD11-90FE-41D6-A89F-99692A1589D4start" refX="1" refY="5" markerUnits="userSpaceOnUse" markerWidth="17" markerHeight="11" orient="auto" fill="#000000" stroke="#000000"> 	  		<path id="_20F5AD11-90FE-41D6-A89F-99692A1589D4conditional" d="M 0 5 L 8 0 L 16 5 L 8 10 L 0 5" fill="white" stroke="#000000" stroke-width="1" display="none"/> 			<path id="_20F5AD11-90FE-41D6-A89F-99692A1589D4default" d="M 5 0 L 11 10" fill="white" stroke="#000000" stroke-width="1" display="none"/> 	  	</marker><marker id="_20F5AD11-90FE-41D6-A89F-99692A1589D4end" refX="15" refY="6" markerUnits="userSpaceOnUse" markerWidth="15" markerHeight="12" orient="auto" fill="#000000" stroke="#000000"> 	  		<path id="_20F5AD11-90FE-41D6-A89F-99692A1589D4frame2" d="M 0 1 L 15 6 L 0 11z" fill="#000000" stroke="#000000" stroke-linejoin="round" stroke-width="2"/> 	  	</marker><marker id="_D44C3838-26FA-44BE-A1EA-0E21B93F6C96start" refX="1" refY="5" markerUnits="userSpaceOnUse" markerWidth="17" markerHeight="11" orient="auto" fill="#000000" stroke="#000000"> 	  		<path id="_D44C3838-26FA-44BE-A1EA-0E21B93F6C96conditional" d="M 0 5 L 8 0 L 16 5 L 8 10 L 0 5" fill="white" stroke="#000000" stroke-width="1" display="none"/> 			<path id="_D44C3838-26FA-44BE-A1EA-0E21B93F6C96default" d="M 5 0 L 11 10" fill="white" stroke="#000000" stroke-width="1" display="none"/> 	  	</marker><marker id="_D44C3838-26FA-44BE-A1EA-0E21B93F6C96end" refX="15" refY="6" markerUnits="userSpaceOnUse" markerWidth="15" markerHeight="12" orient="auto" fill="#000000" stroke="#000000"> 	  		<path id="_D44C3838-26FA-44BE-A1EA-0E21B93F6C96frame2" d="M 0 1 L 15 6 L 0 11z" fill="#000000" stroke="#000000" stroke-linejoin="round" stroke-width="2"/> 	  	</marker></defs><g stroke="none" font-family="Verdana, sans-serif" font-size-adjust="none" font-style="normal" font-variant="normal" font-weight="normal" line-heigth="normal" font-size="12"><g class="stencils" transform="translate(15, 16)"><g class="me"/><g class="children"><g id="_1010CB02-9E5C-4E61-A57D-76C56FD8B379" bpmn2nodeid="_FB31BBAD-6032-4AAC-96F4-325377A33032"><g class="stencils" transform="translate(705, 176)"><g class="me"><g pointer-events="fill" id="_1010CB02-9E5C-4E61-A57D-76C56FD8B379">       <defs id="_1010CB02-9E5C-4E61-A57D-76C56FD8B379__1010CB02-9E5C-4E61-A57D-76C56FD8B379_5"> 		<radialGradient id="_1010CB02-9E5C-4E61-A57D-76C56FD8B379background" cx="10%" cy="10%" r="100%" fx="10%" fy="10%"> 			<stop offset="0%" stop-color="#ffffff" stop-opacity="1" id="_1010CB02-9E5C-4E61-A57D-76C56FD8B379__1010CB02-9E5C-4E61-A57D-76C56FD8B379_6"/> 			<stop id="_1010CB02-9E5C-4E61-A57D-76C56FD8B379fill_el" offset="100%" stop-color="#ff6347" stop-opacity="1"/> 		</radialGradient> 		<radialGradient id="_1010CB02-9E5C-4E61-A57D-76C56FD8B379borderbackground" cx="10%" cy="10%" r="100%" fx="10%" fy="10%"> 			<stop offset="0%" stop-color="#ffffff" stop-opacity="1" id="_1010CB02-9E5C-4E61-A57D-76C56FD8B379__1010CB02-9E5C-4E61-A57D-76C56FD8B379_7"/> 			<stop id="_1010CB02-9E5C-4E61-A57D-76C56FD8B379fill_border" offset="100%" stop-color="#000000" stop-opacity="1" stroke="#000000"/> 		</radialGradient> 	</defs> 	     <circle id="_1010CB02-9E5C-4E61-A57D-76C56FD8B379bg_frame" cx="14" cy="14" r="14" stroke="#000000" fill="url(#_1010CB02-9E5C-4E61-A57D-76C56FD8B379background) white" stroke-width="3"/>          <circle id="_1010CB02-9E5C-4E61-A57D-76C56FD8B379frame" cx="14" cy="14" r="9" stroke="#000000" fill="url(#_1010CB02-9E5C-4E61-A57D-76C56FD8B379borderbackground)" stroke-width="1"/> 	<text font-size="11" id="_1010CB02-9E5C-4E61-A57D-76C56FD8B379text_name" x="14" y="30" oryx:align="top center" stroke="black" stroke-width="0pt" letter-spacing="-0.01px" fill="#000000" text-anchor="middle" transform="rotate(0 14 30)" visibility="inherit" oryx:fontSize="11"/>   </g></g><g class="children" style="overflow:hidden"/><g class="edge"/></g><g class="controls"><g class="dockers"/><g class="magnets" transform="translate(705, 176)"><g pointer-events="all" display="none" transform="translate(6, 6)"><circle cx="8" cy="8" r="4" stroke="none" fill="red" fill-opacity="0.3"/></g></g></g></g><g id="_E2BB2857-B1AB-41B5-8111-4DFEA437502C" bpmn2nodeid="_B6A465DF-4939-4559-95E6-E52528F25F4B"><g class="stencils" transform="translate(428, 150)"><g class="me"><g pointer-events="fill" oryx:minimumSize="50 40" id="_E2BB2857-B1AB-41B5-8111-4DFEA437502C">   	<defs id="_E2BB2857-B1AB-41B5-8111-4DFEA437502C__E2BB2857-B1AB-41B5-8111-4DFEA437502C_17"> 		<radialGradient id="_E2BB2857-B1AB-41B5-8111-4DFEA437502Cbackground" cx="10%" cy="10%" r="100%" fx="10%" fy="10%"> 			<stop offset="0%" stop-color="#ffffff" stop-opacity="1" id="_E2BB2857-B1AB-41B5-8111-4DFEA437502C__E2BB2857-B1AB-41B5-8111-4DFEA437502C_18"/> 			<stop id="_E2BB2857-B1AB-41B5-8111-4DFEA437502Cfill_el" offset="100%" stop-color="#fafad2" stop-opacity="1"/> 		</radialGradient> 		<radialGradient id="_E2BB2857-B1AB-41B5-8111-4DFEA437502Cborderbackground" cx="10%" cy="10%" r="100%" fx="10%" fy="10%"> 			<stop offset="0%" stop-color="#ffffff" stop-opacity="1" id="_E2BB2857-B1AB-41B5-8111-4DFEA437502C__E2BB2857-B1AB-41B5-8111-4DFEA437502C_19"/> 			<stop id="_E2BB2857-B1AB-41B5-8111-4DFEA437502Cfill_border" offset="100%" stop-color="#000000" stop-opacity="1" stroke="#000000"/> 		</radialGradient> 	</defs> 	 	<rect id="_E2BB2857-B1AB-41B5-8111-4DFEA437502Ctext_frame" oryx:anchors="bottom top right left" x="1" y="1" width="94" height="79" rx="10" ry="10" stroke="none" stroke-width="0" fill="none"/> 	<rect id="_E2BB2857-B1AB-41B5-8111-4DFEA437502Cbg_frame" oryx:resize="vertical horizontal" x="0" y="0" width="100" height="80" rx="10" ry="10" stroke="#000000" stroke-width="1" fill="url(#_E2BB2857-B1AB-41B5-8111-4DFEA437502Cbackground) #ffffcc"/> 		<text font-size="12" id="_E2BB2857-B1AB-41B5-8111-4DFEA437502Ctext_name" x="50" y="40" oryx:align="middle center" oryx:fittoelem="text_frame" stroke="black" text-anchor="middle" stroke-width="0pt" letter-spacing="-0.01px" fill="#000000" transform="rotate(0 50 40)" visibility="inherit" oryx:fontSize="12"><tspan x="50" y="40" dy="5">Print Data</tspan></text>     <g id="_E2BB2857-B1AB-41B5-8111-4DFEA437502CmanualTask" transform="scale(0.7,0.7) translate(8,8)" display="none">     	<path oryx:anchors="top left" id="_E2BB2857-B1AB-41B5-8111-4DFEA437502Cframe" style="opacity:1;fill:none;fill-opacity:1;stroke-width:1" d="M0.5,3.751l4.083-3.25c0,0,11.166,0.083,12.083,0.083s-2.417,2.917-1.5,2.917     s11.667,0,12.584,0c1.166,1.708-0.168,3.167-0.834,3.667s0.875,1.917-1,4.417c-0.75,0.25,0.75,1.875-1.333,3.333     c-1.167,0.583,0.583,1.542-1.25,2.833c-1.167,0-20.833,0.083-20.833,0.083l-2-1.333V3.751z" stroke="#000000"/> 		<path id="_E2BB2857-B1AB-41B5-8111-4DFEA437502Cframe2" oryx:anchors="top left" style="opacity:1;fill:none;stroke-width:2" d="M 13.5 7 L 27 7" stroke="#000000"/> 		<path id="_E2BB2857-B1AB-41B5-8111-4DFEA437502Cframe3" oryx:anchors="top left" style="opacity:1;fill:none;stroke-width:2" d="M 13.5 11 L 26 11" stroke="#000000"/> 		<path id="_E2BB2857-B1AB-41B5-8111-4DFEA437502Cframe4" oryx:anchors="top left" style="opacity:1;fill:none;stroke-width:1.5" d="M 14 14.5 L 25 14.5" stroke="#000000"/> 		<path id="_E2BB2857-B1AB-41B5-8111-4DFEA437502Cframe5" oryx:anchors="top left" style="opacity:1;fill:none;stroke-width:1.5" d="M 8.2 3.1 L 15 3.1" stroke="#000000"/> 	</g> 	 	<g id="_E2BB2857-B1AB-41B5-8111-4DFEA437502CbusinessRuleTask" transform="scale(0.7,0.7) translate(8,8)" display="none"> 		<rect id="_E2BB2857-B1AB-41B5-8111-4DFEA437502Cframe6" oryx:anchors="top left" x="0" y="0" width="22" height="4" style="opacity:1;fill:#B3B1B3;fill-opacity:1;" stroke="#000000"/> 		<rect id="_E2BB2857-B1AB-41B5-8111-4DFEA437502Cframe7" oryx:anchors="top left" x="0" y="4" style="opacity:1;fill:none;" width="22" height="12" stroke="#000000"/> 		<path id="_E2BB2857-B1AB-41B5-8111-4DFEA437502Cframe8" oryx:anchors="top left" style="opacity:1;fill:none;" d="M 0 10 L 22 10" stroke="#000000"/> 		<path id="_E2BB2857-B1AB-41B5-8111-4DFEA437502Cframe9" oryx:anchors="top left" style="opacity:1; fill:none;" d="M 7 4 L 7 16" stroke="#000000"/> 	</g> 	 	<g id="_E2BB2857-B1AB-41B5-8111-4DFEA437502CscriptTask" transform="scale(0.7,0.7) translate(8,8)" display="inherit"> 		<path oryx:anchors="top left" id="_E2BB2857-B1AB-41B5-8111-4DFEA437502Cframe10" style="opacity:1;fill:none;" stroke="#000000" d="M6.402,0.5h14.5c0,0-5.833,2.833-5.833,5.583s4.417,6,4.417,9.167    s-4.167,5.083-4.167,5.083H0.235c0,0,5-2.667,5-5s-4.583-6.75-4.583-9.25S6.402,0.5,6.402,0.5z"/> 		<path oryx:anchors="top left" id="_E2BB2857-B1AB-41B5-8111-4DFEA437502Cframe11" style="opacity:1;fill:none;stroke-width:1.5" d="M 3.5 4.5 L 13.5 4.5" stroke="#000000"/> 		<path oryx:anchors="top left" id="_E2BB2857-B1AB-41B5-8111-4DFEA437502Cframe12" style="opacity:1;fill:none;stroke-width:1.5" d="M 3.8 8.5 L 13.8 8.5" stroke="#000000"/> 		<path oryx:anchors="top left" id="_E2BB2857-B1AB-41B5-8111-4DFEA437502Cframe13" style="opacity:1;fill:none;stroke-width:1.5" d="M 6.3 12.5 L 16.3 12.5" stroke="#000000"/> 		<path oryx:anchors="top left" id="_E2BB2857-B1AB-41B5-8111-4DFEA437502Cframe14" style="opacity:1;fill:none;stroke-width:1.5" d="M 6.5 16.5 L 16.5 16.5" stroke="#000000"/> 	</g> 	 	<g id="_E2BB2857-B1AB-41B5-8111-4DFEA437502CuserTask" transform="scale(0.7,0.7) translate(8,8)" display="none"> 		<path id="_E2BB2857-B1AB-41B5-8111-4DFEA437502Cframe15" oryx:anchors="top left" style="opacity:1;fill:#F4F6F7" stroke="#000000" d="M0.585,24.167h24.083v-7.833c0,0-2.333-3.917-7.083-5.167h-9.25    c-4.417,1.333-7.833,5.75-7.833,5.75L0.585,24.167z"/> 		<path id="_E2BB2857-B1AB-41B5-8111-4DFEA437502Cframe16" oryx:anchors="top left" style="opacity:1;fill:none" d="M 6 20 L 6 24" stroke="#000000"/> 		<path id="_E2BB2857-B1AB-41B5-8111-4DFEA437502Cframe17" oryx:anchors="top left" style="opacity:1;fill:none" d="M 20 20 L 20 24" stroke="#000000"/> 		<circle id="_E2BB2857-B1AB-41B5-8111-4DFEA437502Cframe18" oryx:anchors="top left" fill="black" cx="13.002" cy="5.916" r="5.417" stroke="#000000"/> 		<path id="_E2BB2857-B1AB-41B5-8111-4DFEA437502Cframe19" oryx:anchors="top left" style="opacity:1;fill:#F0EFF0;" stroke="#000000" d="M8.043,7.083c0,0,2.814-2.426,5.376-1.807s4.624-0.693,4.624-0.693    c0.25,1.688,0.042,3.75-1.458,5.584c0,0,1.083,0.75,1.083,1.5s0.125,1.875-1,3s-5.5,1.25-6.75,0S8.668,12.834,8.668,12    s0.583-1.25,1.25-1.917C8.835,9.5,7.419,7.708,8.043,7.083z"/> 	</g> 	 	<g id="_E2BB2857-B1AB-41B5-8111-4DFEA437502CserviceTask" transform="scale(0.7,0.7) translate(8,8)" display="none"> 		<polygon oryx:anchors="top left" id="_E2BB2857-B1AB-41B5-8111-4DFEA437502Cframe20" style="opacity:1;fill:#ffffff" stroke="#000000" points="15.392,5.064 17.954,2.502 20.347,4.895 17.786,7.455     18.729,9.732 22.353,9.732 22.353,13.115 18.731,13.115 17.788,15.392 20.351,17.955 17.958,20.347 15.397,17.786 13.12,18.729     13.12,22.353 9.737,22.353 9.737,18.731 7.46,17.788 4.897,20.35 2.506,17.958 5.066,15.397 4.124,13.12 0.5,13.12 0.5,9.737     4.121,9.737 5.065,7.461 2.503,4.898 4.895,2.506 7.455,5.066 9.732,4.125 9.732,0.5 13.116,0.5 13.116,4.121 "/> 		<circle oryx:anchors="top left" id="_E2BB2857-B1AB-41B5-8111-4DFEA437502Cframe21" style="opacity:1;fill:none" stroke="#000000" cx="11.427" cy="11.426" r="3.714"/> 		<polygon oryx:anchors="top left" id="_E2BB2857-B1AB-41B5-8111-4DFEA437502Cframe22" style="opacity:1;fill:#ffffff" stroke="#000000" points="21.392,11.064 23.954,8.502 26.347,10.895 23.786,13.455     24.729,15.732 28.353,15.732 28.353,19.115 24.731,19.115 23.788,21.392 26.351,23.955 23.958,26.347 21.397,23.786 19.12,24.729     19.12,28.353 15.737,28.353 15.737,24.731 13.46,23.788 10.897,26.35 8.506,23.958 11.066,21.397 10.124,19.12 6.5,19.12     6.5,15.737 10.121,15.737 11.065,13.461 8.503,10.898 10.895,8.506 13.455,11.066 15.732,10.125 15.732,6.5 19.116,6.5     19.116,10.121 "/> 		<circle oryx:anchors="top left" id="_E2BB2857-B1AB-41B5-8111-4DFEA437502Cframe23" style="opacity:1;fill:none;" stroke="#000000" cx="17.427" cy="17.426" r="3.714"/> 	</g> 	 	<g id="_E2BB2857-B1AB-41B5-8111-4DFEA437502CsendTask" display="none"> 		<path id="_E2BB2857-B1AB-41B5-8111-4DFEA437502Cstframe24" oryx:anchors="left top" stroke="#FFFFFF" fill="black" stroke-width="1" d="M8,11 L8,21 L24,21 L24,11 L16,17z"/> 		<path id="_E2BB2857-B1AB-41B5-8111-4DFEA437502Cstframe25" oryx:anchors="left top" stroke="#FFFFFF" fill="black" stroke-width="1" d="M7,10 L16,17 L25 10z"/> 	</g> 	 	<g id="_E2BB2857-B1AB-41B5-8111-4DFEA437502CreceiveTask" display="none"> 		<path id="_E2BB2857-B1AB-41B5-8111-4DFEA437502Cframe26" oryx:anchors="left top" stroke="#000000" fill="none" stroke-width="1" d="M8,11 L8,21 L24,21 L24,11z M8,11 L16,17 L24,11"/> 	</g> 	 	<g id="_E2BB2857-B1AB-41B5-8111-4DFEA437502Cnone" display="inherit"/>  	<g id="_E2BB2857-B1AB-41B5-8111-4DFEA437502Csequential" display="none">         <path oryx:anchors="bottom" fill="none" stroke="#000000" stroke-width="2" d="M46,76h10M46,72h10 M46,68h10" id="_E2BB2857-B1AB-41B5-8111-4DFEA437502C__E2BB2857-B1AB-41B5-8111-4DFEA437502C_20"/>     </g>   </g></g><g class="children" style="overflow:hidden"/><g class="edge"/></g><g class="controls"><g class="dockers"/><g class="magnets" transform="translate(428, 150)"><g pointer-events="all" display="none" transform="translate(-7, 12)"><circle cx="8" cy="8" r="4" stroke="none" fill="red" fill-opacity="0.3"/></g><g pointer-events="all" display="none" transform="translate(-7, 32)"><circle cx="8" cy="8" r="4" stroke="none" fill="red" fill-opacity="0.3"/></g><g pointer-events="all" display="none" transform="translate(-7, 52)"><circle cx="8" cy="8" r="4" stroke="none" fill="red" fill-opacity="0.3"/></g><g pointer-events="all" display="none" transform="translate(17, 71)"><circle cx="8" cy="8" r="4" stroke="none" fill="red" fill-opacity="0.3"/></g><g pointer-events="all" display="none" transform="translate(42, 71)"><circle cx="8" cy="8" r="4" stroke="none" fill="red" fill-opacity="0.3"/></g><g pointer-events="all" display="none" transform="translate(67, 71)"><circle cx="8" cy="8" r="4" stroke="none" fill="red" fill-opacity="0.3"/></g><g pointer-events="all" display="none" transform="translate(91, 12)"><circle cx="8" cy="8" r="4" stroke="none" fill="red" fill-opacity="0.3"/></g><g pointer-events="all" display="none" transform="translate(91, 32)"><circle cx="8" cy="8" r="4" stroke="none" fill="red" fill-opacity="0.3"/></g><g pointer-events="all" display="none" transform="translate(91, 52)"><circle cx="8" cy="8" r="4" stroke="none" fill="red" fill-opacity="0.3"/></g><g pointer-events="all" display="none" transform="translate(17, -7)"><circle cx="8" cy="8" r="4" stroke="none" fill="red" fill-opacity="0.3"/></g><g pointer-events="all" display="none" transform="translate(42, -7)"><circle cx="8" cy="8" r="4" stroke="none" fill="red" fill-opacity="0.3"/></g><g pointer-events="all" display="none" transform="translate(67, -7)"><circle cx="8" cy="8" r="4" stroke="none" fill="red" fill-opacity="0.3"/></g><g pointer-events="all" display="none" transform="translate(42, 32)"><circle cx="8" cy="8" r="4" stroke="none" fill="red" fill-opacity="0.3"/></g></g></g></g><g id="_D3613AF3-5A2D-41A7-8C4A-96983D666064" bpmn2nodeid="_C31E712F-25F0-4B6A-9191-8EB54D70A3AE"><g class="stencils" transform="translate(210, 150)"><g class="me"><g pointer-events="fill" oryx:minimumSize="50 40" id="_D3613AF3-5A2D-41A7-8C4A-96983D666064">   	<defs id="_D3613AF3-5A2D-41A7-8C4A-96983D666064__D3613AF3-5A2D-41A7-8C4A-96983D666064_17"> 		<radialGradient id="_D3613AF3-5A2D-41A7-8C4A-96983D666064background" cx="10%" cy="10%" r="100%" fx="10%" fy="10%"> 			<stop offset="0%" stop-color="#ffffff" stop-opacity="1" id="_D3613AF3-5A2D-41A7-8C4A-96983D666064__D3613AF3-5A2D-41A7-8C4A-96983D666064_18"/> 			<stop id="_D3613AF3-5A2D-41A7-8C4A-96983D666064fill_el" offset="100%" stop-color="#fafad2" stop-opacity="1"/> 		</radialGradient> 		<radialGradient id="_D3613AF3-5A2D-41A7-8C4A-96983D666064borderbackground" cx="10%" cy="10%" r="100%" fx="10%" fy="10%"> 			<stop offset="0%" stop-color="#ffffff" stop-opacity="1" id="_D3613AF3-5A2D-41A7-8C4A-96983D666064__D3613AF3-5A2D-41A7-8C4A-96983D666064_19"/> 			<stop id="_D3613AF3-5A2D-41A7-8C4A-96983D666064fill_border" offset="100%" stop-color="#000000" stop-opacity="1" stroke="#000000"/> 		</radialGradient> 	</defs> 	 	<rect id="_D3613AF3-5A2D-41A7-8C4A-96983D666064text_frame" oryx:anchors="bottom top right left" x="1" y="1" width="94" height="79" rx="10" ry="10" stroke="none" stroke-width="0" fill="none"/> 	<rect id="_D3613AF3-5A2D-41A7-8C4A-96983D666064bg_frame" oryx:resize="vertical horizontal" x="0" y="0" width="100" height="80" rx="10" ry="10" stroke="#000000" stroke-width="1" fill="url(#_D3613AF3-5A2D-41A7-8C4A-96983D666064background) #ffffcc"/> 		<text font-size="12" id="_D3613AF3-5A2D-41A7-8C4A-96983D666064text_name" x="50" y="40" oryx:align="middle center" oryx:fittoelem="text_frame" stroke="black" text-anchor="middle" stroke-width="0pt" letter-spacing="-0.01px" fill="#000000" transform="rotate(0 50 40)" visibility="inherit" oryx:fontSize="12"><tspan x="50" y="40" dy="5" id="ext-gen606">Hello Case</tspan></text>     <g id="_D3613AF3-5A2D-41A7-8C4A-96983D666064manualTask" transform="scale(0.7,0.7) translate(8,8)" display="none">     	<path oryx:anchors="top left" id="_D3613AF3-5A2D-41A7-8C4A-96983D666064frame" style="opacity:1;fill:none;fill-opacity:1;stroke-width:1" d="M0.5,3.751l4.083-3.25c0,0,11.166,0.083,12.083,0.083s-2.417,2.917-1.5,2.917     s11.667,0,12.584,0c1.166,1.708-0.168,3.167-0.834,3.667s0.875,1.917-1,4.417c-0.75,0.25,0.75,1.875-1.333,3.333     c-1.167,0.583,0.583,1.542-1.25,2.833c-1.167,0-20.833,0.083-20.833,0.083l-2-1.333V3.751z" stroke="#000000"/> 		<path id="_D3613AF3-5A2D-41A7-8C4A-96983D666064frame2" oryx:anchors="top left" style="opacity:1;fill:none;stroke-width:2" d="M 13.5 7 L 27 7" stroke="#000000"/> 		<path id="_D3613AF3-5A2D-41A7-8C4A-96983D666064frame3" oryx:anchors="top left" style="opacity:1;fill:none;stroke-width:2" d="M 13.5 11 L 26 11" stroke="#000000"/> 		<path id="_D3613AF3-5A2D-41A7-8C4A-96983D666064frame4" oryx:anchors="top left" style="opacity:1;fill:none;stroke-width:1.5" d="M 14 14.5 L 25 14.5" stroke="#000000"/> 		<path id="_D3613AF3-5A2D-41A7-8C4A-96983D666064frame5" oryx:anchors="top left" style="opacity:1;fill:none;stroke-width:1.5" d="M 8.2 3.1 L 15 3.1" stroke="#000000"/> 	</g> 	 	<g id="_D3613AF3-5A2D-41A7-8C4A-96983D666064businessRuleTask" transform="scale(0.7,0.7) translate(8,8)" display="none"> 		<rect id="_D3613AF3-5A2D-41A7-8C4A-96983D666064frame6" oryx:anchors="top left" x="0" y="0" width="22" height="4" style="opacity:1;fill:#B3B1B3;fill-opacity:1;" stroke="#000000"/> 		<rect id="_D3613AF3-5A2D-41A7-8C4A-96983D666064frame7" oryx:anchors="top left" x="0" y="4" style="opacity:1;fill:none;" width="22" height="12" stroke="#000000"/> 		<path id="_D3613AF3-5A2D-41A7-8C4A-96983D666064frame8" oryx:anchors="top left" style="opacity:1;fill:none;" d="M 0 10 L 22 10" stroke="#000000"/> 		<path id="_D3613AF3-5A2D-41A7-8C4A-96983D666064frame9" oryx:anchors="top left" style="opacity:1; fill:none;" d="M 7 4 L 7 16" stroke="#000000"/> 	</g> 	 	<g id="_D3613AF3-5A2D-41A7-8C4A-96983D666064scriptTask" transform="scale(0.7,0.7) translate(8,8)" display="inherit"> 		<path oryx:anchors="top left" id="_D3613AF3-5A2D-41A7-8C4A-96983D666064frame10" style="opacity:1;fill:none;" stroke="#000000" d="M6.402,0.5h14.5c0,0-5.833,2.833-5.833,5.583s4.417,6,4.417,9.167    s-4.167,5.083-4.167,5.083H0.235c0,0,5-2.667,5-5s-4.583-6.75-4.583-9.25S6.402,0.5,6.402,0.5z"/> 		<path oryx:anchors="top left" id="_D3613AF3-5A2D-41A7-8C4A-96983D666064frame11" style="opacity:1;fill:none;stroke-width:1.5" d="M 3.5 4.5 L 13.5 4.5" stroke="#000000"/> 		<path oryx:anchors="top left" id="_D3613AF3-5A2D-41A7-8C4A-96983D666064frame12" style="opacity:1;fill:none;stroke-width:1.5" d="M 3.8 8.5 L 13.8 8.5" stroke="#000000"/> 		<path oryx:anchors="top left" id="_D3613AF3-5A2D-41A7-8C4A-96983D666064frame13" style="opacity:1;fill:none;stroke-width:1.5" d="M 6.3 12.5 L 16.3 12.5" stroke="#000000"/> 		<path oryx:anchors="top left" id="_D3613AF3-5A2D-41A7-8C4A-96983D666064frame14" style="opacity:1;fill:none;stroke-width:1.5" d="M 6.5 16.5 L 16.5 16.5" stroke="#000000"/> 	</g> 	 	<g id="_D3613AF3-5A2D-41A7-8C4A-96983D666064userTask" transform="scale(0.7,0.7) translate(8,8)" display="none"> 		<path id="_D3613AF3-5A2D-41A7-8C4A-96983D666064frame15" oryx:anchors="top left" style="opacity:1;fill:#F4F6F7" stroke="#000000" d="M0.585,24.167h24.083v-7.833c0,0-2.333-3.917-7.083-5.167h-9.25    c-4.417,1.333-7.833,5.75-7.833,5.75L0.585,24.167z"/> 		<path id="_D3613AF3-5A2D-41A7-8C4A-96983D666064frame16" oryx:anchors="top left" style="opacity:1;fill:none" d="M 6 20 L 6 24" stroke="#000000"/> 		<path id="_D3613AF3-5A2D-41A7-8C4A-96983D666064frame17" oryx:anchors="top left" style="opacity:1;fill:none" d="M 20 20 L 20 24" stroke="#000000"/> 		<circle id="_D3613AF3-5A2D-41A7-8C4A-96983D666064frame18" oryx:anchors="top left" fill="black" cx="13.002" cy="5.916" r="5.417" stroke="#000000"/> 		<path id="_D3613AF3-5A2D-41A7-8C4A-96983D666064frame19" oryx:anchors="top left" style="opacity:1;fill:#F0EFF0;" stroke="#000000" d="M8.043,7.083c0,0,2.814-2.426,5.376-1.807s4.624-0.693,4.624-0.693    c0.25,1.688,0.042,3.75-1.458,5.584c0,0,1.083,0.75,1.083,1.5s0.125,1.875-1,3s-5.5,1.25-6.75,0S8.668,12.834,8.668,12    s0.583-1.25,1.25-1.917C8.835,9.5,7.419,7.708,8.043,7.083z"/> 	</g> 	 	<g id="_D3613AF3-5A2D-41A7-8C4A-96983D666064serviceTask" transform="scale(0.7,0.7) translate(8,8)" display="none"> 		<polygon oryx:anchors="top left" id="_D3613AF3-5A2D-41A7-8C4A-96983D666064frame20" style="opacity:1;fill:#ffffff" stroke="#000000" points="15.392,5.064 17.954,2.502 20.347,4.895 17.786,7.455     18.729,9.732 22.353,9.732 22.353,13.115 18.731,13.115 17.788,15.392 20.351,17.955 17.958,20.347 15.397,17.786 13.12,18.729     13.12,22.353 9.737,22.353 9.737,18.731 7.46,17.788 4.897,20.35 2.506,17.958 5.066,15.397 4.124,13.12 0.5,13.12 0.5,9.737     4.121,9.737 5.065,7.461 2.503,4.898 4.895,2.506 7.455,5.066 9.732,4.125 9.732,0.5 13.116,0.5 13.116,4.121 "/> 		<circle oryx:anchors="top left" id="_D3613AF3-5A2D-41A7-8C4A-96983D666064frame21" style="opacity:1;fill:none" stroke="#000000" cx="11.427" cy="11.426" r="3.714"/> 		<polygon oryx:anchors="top left" id="_D3613AF3-5A2D-41A7-8C4A-96983D666064frame22" style="opacity:1;fill:#ffffff" stroke="#000000" points="21.392,11.064 23.954,8.502 26.347,10.895 23.786,13.455     24.729,15.732 28.353,15.732 28.353,19.115 24.731,19.115 23.788,21.392 26.351,23.955 23.958,26.347 21.397,23.786 19.12,24.729     19.12,28.353 15.737,28.353 15.737,24.731 13.46,23.788 10.897,26.35 8.506,23.958 11.066,21.397 10.124,19.12 6.5,19.12     6.5,15.737 10.121,15.737 11.065,13.461 8.503,10.898 10.895,8.506 13.455,11.066 15.732,10.125 15.732,6.5 19.116,6.5     19.116,10.121 "/> 		<circle oryx:anchors="top left" id="_D3613AF3-5A2D-41A7-8C4A-96983D666064frame23" style="opacity:1;fill:none;" stroke="#000000" cx="17.427" cy="17.426" r="3.714"/> 	</g> 	 	<g id="_D3613AF3-5A2D-41A7-8C4A-96983D666064sendTask" display="none"> 		<path id="_D3613AF3-5A2D-41A7-8C4A-96983D666064stframe24" oryx:anchors="left top" stroke="#FFFFFF" fill="black" stroke-width="1" d="M8,11 L8,21 L24,21 L24,11 L16,17z"/> 		<path id="_D3613AF3-5A2D-41A7-8C4A-96983D666064stframe25" oryx:anchors="left top" stroke="#FFFFFF" fill="black" stroke-width="1" d="M7,10 L16,17 L25 10z"/> 	</g> 	 	<g id="_D3613AF3-5A2D-41A7-8C4A-96983D666064receiveTask" display="none"> 		<path id="_D3613AF3-5A2D-41A7-8C4A-96983D666064frame26" oryx:anchors="left top" stroke="#000000" fill="none" stroke-width="1" d="M8,11 L8,21 L24,21 L24,11z M8,11 L16,17 L24,11"/> 	</g> 	 	<g id="_D3613AF3-5A2D-41A7-8C4A-96983D666064none" display="inherit"/>  	<g id="_D3613AF3-5A2D-41A7-8C4A-96983D666064sequential" display="none">         <path oryx:anchors="bottom" fill="none" stroke="#000000" stroke-width="2" d="M46,76h10M46,72h10 M46,68h10" id="_D3613AF3-5A2D-41A7-8C4A-96983D666064__D3613AF3-5A2D-41A7-8C4A-96983D666064_20"/>     </g>   </g></g><g class="children" style="overflow:hidden"/><g class="edge"/></g><g class="controls"><g class="dockers"/><g class="magnets" transform="translate(210, 150)"><g pointer-events="all" display="none" transform="translate(-7, 12)"><circle cx="8" cy="8" r="4" stroke="none" fill="red" fill-opacity="0.3"/></g><g pointer-events="all" display="none" transform="translate(-7, 32)"><circle cx="8" cy="8" r="4" stroke="none" fill="red" fill-opacity="0.3"/></g><g pointer-events="all" display="none" transform="translate(-7, 52)"><circle cx="8" cy="8" r="4" stroke="none" fill="red" fill-opacity="0.3"/></g><g pointer-events="all" display="none" transform="translate(17, 71)"><circle cx="8" cy="8" r="4" stroke="none" fill="red" fill-opacity="0.3"/></g><g pointer-events="all" display="none" transform="translate(42, 71)"><circle cx="8" cy="8" r="4" stroke="none" fill="red" fill-opacity="0.3"/></g><g pointer-events="all" display="none" transform="translate(67, 71)"><circle cx="8" cy="8" r="4" stroke="none" fill="red" fill-opacity="0.3"/></g><g pointer-events="all" display="none" transform="translate(91, 12)"><circle cx="8" cy="8" r="4" stroke="none" fill="red" fill-opacity="0.3"/></g><g pointer-events="all" display="none" transform="translate(91, 32)"><circle cx="8" cy="8" r="4" stroke="none" fill="red" fill-opacity="0.3"/></g><g pointer-events="all" display="none" transform="translate(91, 52)"><circle cx="8" cy="8" r="4" stroke="none" fill="red" fill-opacity="0.3"/></g><g pointer-events="all" display="none" transform="translate(17, -7)"><circle cx="8" cy="8" r="4" stroke="none" fill="red" fill-opacity="0.3"/></g><g pointer-events="all" display="none" transform="translate(42, -7)"><circle cx="8" cy="8" r="4" stroke="none" fill="red" fill-opacity="0.3"/></g><g pointer-events="all" display="none" transform="translate(67, -7)"><circle cx="8" cy="8" r="4" stroke="none" fill="red" fill-opacity="0.3"/></g><g pointer-events="all" display="none" transform="translate(42, 32)"><circle cx="8" cy="8" r="4" stroke="none" fill="red" fill-opacity="0.3"/></g></g></g></g></g><g class="edge"><g id="_20F5AD11-90FE-41D6-A89F-99692A1589D4" bpmn2nodeid="_9416317C-E67E-479A-A120-DE066A3AB94E"><g class="stencils"><g class="me"><g pointer-events="painted" bpmn2nodeid="_EEC3BAE5-79C5-4BE6-AA61-2E6AC8869EBC"><path id="_20F5AD11-90FE-41D6-A89F-99692A1589D4_1" d="M528.89453125 190L704.8203125 190 " stroke="#000000" fill="none" stroke-width="2" stroke-linecap="round" stroke-linejoin="round" marker-start="url(#_20F5AD11-90FE-41D6-A89F-99692A1589D4start)" marker-end="url(#_20F5AD11-90FE-41D6-A89F-99692A1589D4end)"/></g><text id="_20F5AD11-90FE-41D6-A89F-99692A1589D4text_name" font-size="12" x="542.89453125" y="176" oryx:edgePosition="startTop" stroke-width="0pt" letter-spacing="-0.01px" fill="#000000" text-anchor="start" transform="rotate(360 528.89453125 190)" visibility="inherit" oryx:fontSize="12"/></g><g class="children" style="overflow:hidden"/><g class="edge"/></g><g class="controls"><g class="dockers"/><g class="magnets"/></g></g><g id="_D44C3838-26FA-44BE-A1EA-0E21B93F6C96" bpmn2nodeid="_00D79ACB-077B-4438-AAF4-4CCDD281B460"><g class="stencils"><g class="me"><g pointer-events="painted" bpmn2nodeid="_33C128DE-B346-44AC-939C-8DFABA8A6C56"><path id="_D44C3838-26FA-44BE-A1EA-0E21B93F6C96_1" d="M310.390625 190L427.609375 190 " stroke="#000000" fill="none" stroke-width="2" stroke-linecap="round" stroke-linejoin="round" marker-start="url(#_D44C3838-26FA-44BE-A1EA-0E21B93F6C96start)" marker-end="url(#_D44C3838-26FA-44BE-A1EA-0E21B93F6C96end)"/></g><text id="_D44C3838-26FA-44BE-A1EA-0E21B93F6C96text_name" font-size="12" x="324.390625" y="176" oryx:edgePosition="startTop" stroke-width="0pt" letter-spacing="-0.01px" fill="#000000" text-anchor="start" transform="rotate(360 310.390625 190)" visibility="inherit" oryx:fontSize="12"/></g><g class="children" style="overflow:hidden"/><g class="edge"/></g><g class="controls"><g class="dockers"/><g class="magnets"/></g></g></g><text id="_0D8F8DC9-A610-4B65-B351-65C028EB224B" style="stroke-width:1;fill:rgb(177,194,214);font-family:arial;font-weight:bold" font-size="12" onclick="ORYX.Plugins.CanvasTitle.openTextualAnalysis()" onmouseover="ORYX.Plugins.CanvasTitle.addToolTip('_0D8F8DC9-A610-4B65-B351-65C028EB224B')" transform="translate(10, 20)">reproducer-case v.1.0 (reproducer-case)</text></g></g></svg>