<svg xmlns="http://www.w3.org/2000/svg" xmlns:oryx="http://oryx-editor.org" id="_C9FB22AC-F2E5-4FB8-9CFF-9681BAB4EC29" width="773" height="275" xmlns:xlink="http://www.w3.org/1999/xlink" xmlns:svg="http://www.w3.org/2000/svg"><defs><marker id="_A1104BC3-6DF4-42F2-9056-1CC6D9EDD99Fstart" refX="1" refY="5" markerUnits="userSpaceOnUse" markerWidth="17" markerHeight="11" orient="auto" fill="#000000" stroke="#000000"> 	  		<path id="_A1104BC3-6DF4-42F2-9056-1CC6D9EDD99Fconditional" d="M 0 5 L 8 0 L 16 5 L 8 10 L 0 5" fill="white" stroke="#000000" stroke-width="1" display="none"/> 			<path id="_A1104BC3-6DF4-42F2-9056-1CC6D9EDD99Fdefault" d="M 5 0 L 11 10" fill="white" stroke="#000000" stroke-width="1" display="none"/> 	  	</marker><marker id="_A1104BC3-6DF4-42F2-9056-1CC6D9EDD99Fend" refX="15" refY="6" markerUnits="userSpaceOnUse" markerWidth="15" markerHeight="12" orient="auto" fill="#000000" stroke="#000000"> 	  		<path id="_A1104BC3-6DF4-42F2-9056-1CC6D9EDD99Fframe2" d="M 0 1 L 15 6 L 0 11z" fill="#000000" stroke="#000000" stroke-linejoin="round" stroke-width="2"/> 	  	</marker><marker id="_1466BC80-548B-4472-AE1E-D975F37741DDstart" refX="1" refY="5" markerUnits="userSpaceOnUse" markerWidth="17" markerHeight="11" orient="auto" fill="#000000" stroke="#000000"> 	  		<path id="_1466BC80-548B-4472-AE1E-D975F37741DDconditional" d="M 0 5 L 8 0 L 16 5 L 8 10 L 0 5" fill="white" stroke="#000000" stroke-width="1" display="none"/> 			<path id="_1466BC80-548B-4472-AE1E-D975F37741DDdefault" d="M 5 0 L 11 10" fill="white" stroke="#000000" stroke-width="1" display="none"/> 	  	</marker><marker id="_1466BC80-548B-4472-AE1E-D975F37741DDend" refX="15" refY="6" markerUnits="userSpaceOnUse" markerWidth="15" markerHeight="12" orient="auto" fill="#000000" stroke="#000000"> 	  		<path id="_1466BC80-548B-4472-AE1E-D975F37741DDframe2" d="M 0 1 L 15 6 L 0 11z" fill="#000000" stroke="#000000" stroke-linejoin="round" stroke-width="2"/> 	  	</marker></defs><g stroke="none" font-family="Verdana, sans-serif" font-size-adjust="none" font-style="normal" font-variant="normal" font-weight="normal" line-heigth="normal" font-size="12"><g class="stencils" transform="translate(15, 16)"><g class="me"/><g class="children"><g id="_16E04A9C-E8B3-4420-A040-BE2264E06502" bpmn2nodeid="_FB31BBAD-6032-4AAC-96F4-325377A33032"><g class="stencils" transform="translate(705, 176)"><g class="me"><g pointer-events="fill" id="_16E04A9C-E8B3-4420-A040-BE2264E06502">       <defs id="_16E04A9C-E8B3-4420-A040-BE2264E06502__16E04A9C-E8B3-4420-A040-BE2264E06502_5"> 		<radialGradient id="_16E04A9C-E8B3-4420-A040-BE2264E06502background" cx="10%" cy="10%" r="100%" fx="10%" fy="10%"> 			<stop offset="0%" stop-color="#ffffff" stop-opacity="1" id="_16E04A9C-E8B3-4420-A040-BE2264E06502__16E04A9C-E8B3-4420-A040-BE2264E06502_6"/> 			<stop id="_16E04A9C-E8B3-4420-A040-BE2264E06502fill_el" offset="100%" stop-color="#ff6347" stop-opacity="1"/> 		</radialGradient> 		<radialGradient id="_16E04A9C-E8B3-4420-A040-BE2264E06502borderbackground" cx="10%" cy="10%" r="100%" fx="10%" fy="10%"> 			<stop offset="0%" stop-color="#ffffff" stop-opacity="1" id="_16E04A9C-E8B3-4420-A040-BE2264E06502__16E04A9C-E8B3-4420-A040-BE2264E06502_7"/> 			<stop id="_16E04A9C-E8B3-4420-A040-BE2264E06502fill_border" offset="100%" stop-color="#000000" stop-opacity="1" stroke="#000000"/> 		</radialGradient> 	</defs> 	     <circle id="_16E04A9C-E8B3-4420-A040-BE2264E06502bg_frame" cx="14" cy="14" r="14" stroke="#000000" fill="url(#_16E04A9C-E8B3-4420-A040-BE2264E06502background) white" stroke-width="3"/>          <circle id="_16E04A9C-E8B3-4420-A040-BE2264E06502frame" cx="14" cy="14" r="9" stroke="#000000" fill="url(#_16E04A9C-E8B3-4420-A040-BE2264E06502borderbackground)" stroke-width="1"/> 	<text font-size="11" id="_16E04A9C-E8B3-4420-A040-BE2264E06502text_name" x="14" y="30" oryx:align="top center" stroke="black" stroke-width="0pt" letter-spacing="-0.01px" fill="#000000" text-anchor="middle" transform="rotate(0 14 30)" visibility="inherit" oryx:fontSize="11"/>   </g></g><g class="children" style="overflow:hidden"/><g class="edge"/></g><g class="controls"><g class="dockers"/><g class="magnets" transform="translate(705, 176)"><g pointer-events="all" display="none" transform="translate(6, 6)"><circle cx="8" cy="8" r="4" stroke="none" fill="red" fill-opacity="0.3"/></g></g></g></g><g id="_AE91F347-6F7D-4382-89AA-5479A54E286E" bpmn2nodeid="_B6A465DF-4939-4559-95E6-E52528F25F4B"><g class="stencils" transform="translate(428, 150)"><g class="me"><g pointer-events="fill" oryx:minimumSize="50 40" id="_AE91F347-6F7D-4382-89AA-5479A54E286E">   	<defs id="_AE91F347-6F7D-4382-89AA-5479A54E286E__AE91F347-6F7D-4382-89AA-5479A54E286E_17"> 		<radialGradient id="_AE91F347-6F7D-4382-89AA-5479A54E286Ebackground" cx="10%" cy="10%" r="100%" fx="10%" fy="10%"> 			<stop offset="0%" stop-color="#ffffff" stop-opacity="1" id="_AE91F347-6F7D-4382-89AA-5479A54E286E__AE91F347-6F7D-4382-89AA-5479A54E286E_18"/> 			<stop id="_AE91F347-6F7D-4382-89AA-5479A54E286Efill_el" offset="100%" stop-color="#fafad2" stop-opacity="1"/> 		</radialGradient> 		<radialGradient id="_AE91F347-6F7D-4382-89AA-5479A54E286Eborderbackground" cx="10%" cy="10%" r="100%" fx="10%" fy="10%"> 			<stop offset="0%" stop-color="#ffffff" stop-opacity="1" id="_AE91F347-6F7D-4382-89AA-5479A54E286E__AE91F347-6F7D-4382-89AA-5479A54E286E_19"/> 			<stop id="_AE91F347-6F7D-4382-89AA-5479A54E286Efill_border" offset="100%" stop-color="#000000" stop-opacity="1" stroke="#000000"/> 		</radialGradient> 	</defs> 	 	<rect id="_AE91F347-6F7D-4382-89AA-5479A54E286Etext_frame" oryx:anchors="bottom top right left" x="1" y="1" width="94" height="79" rx="10" ry="10" stroke="none" stroke-width="0" fill="none"/> 	<rect id="_AE91F347-6F7D-4382-89AA-5479A54E286Ebg_frame" oryx:resize="vertical horizontal" x="0" y="0" width="100" height="80" rx="10" ry="10" stroke="#000000" stroke-width="1" fill="url(#_AE91F347-6F7D-4382-89AA-5479A54E286Ebackground) #ffffcc"/> 		<text font-size="12" id="_AE91F347-6F7D-4382-89AA-5479A54E286Etext_name" x="50" y="40" oryx:align="middle center" oryx:fittoelem="text_frame" stroke="black" text-anchor="middle" stroke-width="0pt" letter-spacing="-0.01px" fill="#000000" transform="rotate(0 50 40)" visibility="inherit" oryx:fontSize="12"><tspan x="50" y="40" dy="5">Print Data</tspan></text>     <g id="_AE91F347-6F7D-4382-89AA-5479A54E286EmanualTask" transform="scale(0.7,0.7) translate(8,8)" display="none">     	<path oryx:anchors="top left" id="_AE91F347-6F7D-4382-89AA-5479A54E286Eframe" style="opacity:1;fill:none;fill-opacity:1;stroke-width:1" d="M0.5,3.751l4.083-3.25c0,0,11.166,0.083,12.083,0.083s-2.417,2.917-1.5,2.917     s11.667,0,12.584,0c1.166,1.708-0.168,3.167-0.834,3.667s0.875,1.917-1,4.417c-0.75,0.25,0.75,1.875-1.333,3.333     c-1.167,0.583,0.583,1.542-1.25,2.833c-1.167,0-20.833,0.083-20.833,0.083l-2-1.333V3.751z" stroke="#000000"/> 		<path id="_AE91F347-6F7D-4382-89AA-5479A54E286Eframe2" oryx:anchors="top left" style="opacity:1;fill:none;stroke-width:2" d="M 13.5 7 L 27 7" stroke="#000000"/> 		<path id="_AE91F347-6F7D-4382-89AA-5479A54E286Eframe3" oryx:anchors="top left" style="opacity:1;fill:none;stroke-width:2" d="M 13.5 11 L 26 11" stroke="#000000"/> 		<path id="_AE91F347-6F7D-4382-89AA-5479A54E286Eframe4" oryx:anchors="top left" style="opacity:1;fill:none;stroke-width:1.5" d="M 14 14.5 L 25 14.5" stroke="#000000"/> 		<path id="_AE91F347-6F7D-4382-89AA-5479A54E286Eframe5" oryx:anchors="top left" style="opacity:1;fill:none;stroke-width:1.5" d="M 8.2 3.1 L 15 3.1" stroke="#000000"/> 	</g> 	 	<g id="_AE91F347-6F7D-4382-89AA-5479A54E286EbusinessRuleTask" transform="scale(0.7,0.7) translate(8,8)" display="none"> 		<rect id="_AE91F347-6F7D-4382-89AA-5479A54E286Eframe6" oryx:anchors="top left" x="0" y="0" width="22" height="4" style="opacity:1;fill:#B3B1B3;fill-opacity:1;" stroke="#000000"/> 		<rect id="_AE91F347-6F7D-4382-89AA-5479A54E286Eframe7" oryx:anchors="top left" x="0" y="4" style="opacity:1;fill:none;" width="22" height="12" stroke="#000000"/> 		<path id="_AE91F347-6F7D-4382-89AA-5479A54E286Eframe8" oryx:anchors="top left" style="opacity:1;fill:none;" d="M 0 10 L 22 10" stroke="#000000"/> 		<path id="_AE91F347-6F7D-4382-89AA-5479A54E286Eframe9" oryx:anchors="top left" style="opacity:1; fill:none;" d="M 7 4 L 7 16" stroke="#000000"/> 	</g> 	 	<g id="_AE91F347-6F7D-4382-89AA-5479A54E286EscriptTask" transform="scale(0.7,0.7) translate(8,8)" display="inherit"> 		<path oryx:anchors="top left" id="_AE91F347-6F7D-4382-89AA-5479A54E286Eframe10" style="opacity:1;fill:none;" stroke="#000000" d="M6.402,0.5h14.5c0,0-5.833,2.833-5.833,5.583s4.417,6,4.417,9.167    s-4.167,5.083-4.167,5.083H0.235c0,0,5-2.667,5-5s-4.583-6.75-4.583-9.25S6.402,0.5,6.402,0.5z"/> 		<path oryx:anchors="top left" id="_AE91F347-6F7D-4382-89AA-5479A54E286Eframe11" style="opacity:1;fill:none;stroke-width:1.5" d="M 3.5 4.5 L 13.5 4.5" stroke="#000000"/> 		<path oryx:anchors="top left" id="_AE91F347-6F7D-4382-89AA-5479A54E286Eframe12" style="opacity:1;fill:none;stroke-width:1.5" d="M 3.8 8.5 L 13.8 8.5" stroke="#000000"/> 		<path oryx:anchors="top left" id="_AE91F347-6F7D-4382-89AA-5479A54E286Eframe13" style="opacity:1;fill:none;stroke-width:1.5" d="M 6.3 12.5 L 16.3 12.5" stroke="#000000"/> 		<path oryx:anchors="top left" id="_AE91F347-6F7D-4382-89AA-5479A54E286Eframe14" style="opacity:1;fill:none;stroke-width:1.5" d="M 6.5 16.5 L 16.5 16.5" stroke="#000000"/> 	</g> 	 	<g id="_AE91F347-6F7D-4382-89AA-5479A54E286EuserTask" transform="scale(0.7,0.7) translate(8,8)" display="none"> 		<path id="_AE91F347-6F7D-4382-89AA-5479A54E286Eframe15" oryx:anchors="top left" style="opacity:1;fill:#F4F6F7" stroke="#000000" d="M0.585,24.167h24.083v-7.833c0,0-2.333-3.917-7.083-5.167h-9.25    c-4.417,1.333-7.833,5.75-7.833,5.75L0.585,24.167z"/> 		<path id="_AE91F347-6F7D-4382-89AA-5479A54E286Eframe16" oryx:anchors="top left" style="opacity:1;fill:none" d="M 6 20 L 6 24" stroke="#000000"/> 		<path id="_AE91F347-6F7D-4382-89AA-5479A54E286Eframe17" oryx:anchors="top left" style="opacity:1;fill:none" d="M 20 20 L 20 24" stroke="#000000"/> 		<circle id="_AE91F347-6F7D-4382-89AA-5479A54E286Eframe18" oryx:anchors="top left" fill="black" cx="13.002" cy="5.916" r="5.417" stroke="#000000"/> 		<path id="_AE91F347-6F7D-4382-89AA-5479A54E286Eframe19" oryx:anchors="top left" style="opacity:1;fill:#F0EFF0;" stroke="#000000" d="M8.043,7.083c0,0,2.814-2.426,5.376-1.807s4.624-0.693,4.624-0.693    c0.25,1.688,0.042,3.75-1.458,5.584c0,0,1.083,0.75,1.083,1.5s0.125,1.875-1,3s-5.5,1.25-6.75,0S8.668,12.834,8.668,12    s0.583-1.25,1.25-1.917C8.835,9.5,7.419,7.708,8.043,7.083z"/> 	</g> 	 	<g id="_AE91F347-6F7D-4382-89AA-5479A54E286EserviceTask" transform="scale(0.7,0.7) translate(8,8)" display="none"> 		<polygon oryx:anchors="top left" id="_AE91F347-6F7D-4382-89AA-5479A54E286Eframe20" style="opacity:1;fill:#ffffff" stroke="#000000" points="15.392,5.064 17.954,2.502 20.347,4.895 17.786,7.455     18.729,9.732 22.353,9.732 22.353,13.115 18.731,13.115 17.788,15.392 20.351,17.955 17.958,20.347 15.397,17.786 13.12,18.729     13.12,22.353 9.737,22.353 9.737,18.731 7.46,17.788 4.897,20.35 2.506,17.958 5.066,15.397 4.124,13.12 0.5,13.12 0.5,9.737     4.121,9.737 5.065,7.461 2.503,4.898 4.895,2.506 7.455,5.066 9.732,4.125 9.732,0.5 13.116,0.5 13.116,4.121 "/> 		<circle oryx:anchors="top left" id="_AE91F347-6F7D-4382-89AA-5479A54E286Eframe21" style="opacity:1;fill:none" stroke="#000000" cx="11.427" cy="11.426" r="3.714"/> 		<polygon oryx:anchors="top left" id="_AE91F347-6F7D-4382-89AA-5479A54E286Eframe22" style="opacity:1;fill:#ffffff" stroke="#000000" points="21.392,11.064 23.954,8.502 26.347,10.895 23.786,13.455     24.729,15.732 28.353,15.732 28.353,19.115 24.731,19.115 23.788,21.392 26.351,23.955 23.958,26.347 21.397,23.786 19.12,24.729     19.12,28.353 15.737,28.353 15.737,24.731 13.46,23.788 10.897,26.35 8.506,23.958 11.066,21.397 10.124,19.12 6.5,19.12     6.5,15.737 10.121,15.737 11.065,13.461 8.503,10.898 10.895,8.506 13.455,11.066 15.732,10.125 15.732,6.5 19.116,6.5     19.116,10.121 "/> 		<circle oryx:anchors="top left" id="_AE91F347-6F7D-4382-89AA-5479A54E286Eframe23" style="opacity:1;fill:none;" stroke="#000000" cx="17.427" cy="17.426" r="3.714"/> 	</g> 	 	<g id="_AE91F347-6F7D-4382-89AA-5479A54E286EsendTask" display="none"> 		<path id="_AE91F347-6F7D-4382-89AA-5479A54E286Estframe24" oryx:anchors="left top" stroke="#FFFFFF" fill="black" stroke-width="1" d="M8,11 L8,21 L24,21 L24,11 L16,17z"/> 		<path id="_AE91F347-6F7D-4382-89AA-5479A54E286Estframe25" oryx:anchors="left top" stroke="#FFFFFF" fill="black" stroke-width="1" d="M7,10 L16,17 L25 10z"/> 	</g> 	 	<g id="_AE91F347-6F7D-4382-89AA-5479A54E286EreceiveTask" display="none"> 		<path id="_AE91F347-6F7D-4382-89AA-5479A54E286Eframe26" oryx:anchors="left top" stroke="#000000" fill="none" stroke-width="1" d="M8,11 L8,21 L24,21 L24,11z M8,11 L16,17 L24,11"/> 	</g> 	 	<g id="_AE91F347-6F7D-4382-89AA-5479A54E286Enone" display="inherit"/>  	<g id="_AE91F347-6F7D-4382-89AA-5479A54E286Esequential" display="none">         <path oryx:anchors="bottom" fill="none" stroke="#000000" stroke-width="2" d="M46,76h10M46,72h10 M46,68h10" id="_AE91F347-6F7D-4382-89AA-5479A54E286E__AE91F347-6F7D-4382-89AA-5479A54E286E_20"/>     </g>   </g></g><g class="children" style="overflow:hidden"/><g class="edge"/></g><g class="controls"><g class="dockers"/><g class="magnets" transform="translate(428, 150)"><g pointer-events="all" display="none" transform="translate(-7, 12)"><circle cx="8" cy="8" r="4" stroke="none" fill="red" fill-opacity="0.3"/></g><g pointer-events="all" display="none" transform="translate(-7, 32)"><circle cx="8" cy="8" r="4" stroke="none" fill="red" fill-opacity="0.3"/></g><g pointer-events="all" display="none" transform="translate(-7, 52)"><circle cx="8" cy="8" r="4" stroke="none" fill="red" fill-opacity="0.3"/></g><g pointer-events="all" display="none" transform="translate(17, 71)"><circle cx="8" cy="8" r="4" stroke="none" fill="red" fill-opacity="0.3"/></g><g pointer-events="all" display="none" transform="translate(42, 71)"><circle cx="8" cy="8" r="4" stroke="none" fill="red" fill-opacity="0.3"/></g><g pointer-events="all" display="none" transform="translate(67, 71)"><circle cx="8" cy="8" r="4" stroke="none" fill="red" fill-opacity="0.3"/></g><g pointer-events="all" display="none" transform="translate(91, 12)"><circle cx="8" cy="8" r="4" stroke="none" fill="red" fill-opacity="0.3"/></g><g pointer-events="all" display="none" transform="translate(91, 32)"><circle cx="8" cy="8" r="4" stroke="none" fill="red" fill-opacity="0.3"/></g><g pointer-events="all" display="none" transform="translate(91, 52)"><circle cx="8" cy="8" r="4" stroke="none" fill="red" fill-opacity="0.3"/></g><g pointer-events="all" display="none" transform="translate(17, -7)"><circle cx="8" cy="8" r="4" stroke="none" fill="red" fill-opacity="0.3"/></g><g pointer-events="all" display="none" transform="translate(42, -7)"><circle cx="8" cy="8" r="4" stroke="none" fill="red" fill-opacity="0.3"/></g><g pointer-events="all" display="none" transform="translate(67, -7)"><circle cx="8" cy="8" r="4" stroke="none" fill="red" fill-opacity="0.3"/></g><g pointer-events="all" display="none" transform="translate(42, 32)"><circle cx="8" cy="8" r="4" stroke="none" fill="red" fill-opacity="0.3"/></g></g></g></g><g id="_FCF24FED-5D5E-4C2C-8D64-5174B9E2F03C" bpmn2nodeid="_C31E712F-25F0-4B6A-9191-8EB54D70A3AE"><g class="stencils" transform="translate(210, 150)"><g class="me"><g pointer-events="fill" oryx:minimumSize="50 40" id="_FCF24FED-5D5E-4C2C-8D64-5174B9E2F03C">   	<defs id="_FCF24FED-5D5E-4C2C-8D64-5174B9E2F03C__FCF24FED-5D5E-4C2C-8D64-5174B9E2F03C_17"> 		<radialGradient id="_FCF24FED-5D5E-4C2C-8D64-5174B9E2F03Cbackground" cx="10%" cy="10%" r="100%" fx="10%" fy="10%"> 			<stop offset="0%" stop-color="#ffffff" stop-opacity="1" id="_FCF24FED-5D5E-4C2C-8D64-5174B9E2F03C__FCF24FED-5D5E-4C2C-8D64-5174B9E2F03C_18"/> 			<stop id="_FCF24FED-5D5E-4C2C-8D64-5174B9E2F03Cfill_el" offset="100%" stop-color="#fafad2" stop-opacity="1"/> 		</radialGradient> 		<radialGradient id="_FCF24FED-5D5E-4C2C-8D64-5174B9E2F03Cborderbackground" cx="10%" cy="10%" r="100%" fx="10%" fy="10%"> 			<stop offset="0%" stop-color="#ffffff" stop-opacity="1" id="_FCF24FED-5D5E-4C2C-8D64-5174B9E2F03C__FCF24FED-5D5E-4C2C-8D64-5174B9E2F03C_19"/> 			<stop id="_FCF24FED-5D5E-4C2C-8D64-5174B9E2F03Cfill_border" offset="100%" stop-color="#000000" stop-opacity="1" stroke="#000000"/> 		</radialGradient> 	</defs> 	 	<rect id="_FCF24FED-5D5E-4C2C-8D64-5174B9E2F03Ctext_frame" oryx:anchors="bottom top right left" x="1" y="1" width="94" height="79" rx="10" ry="10" stroke="none" stroke-width="0" fill="none"/> 	<rect id="_FCF24FED-5D5E-4C2C-8D64-5174B9E2F03Cbg_frame" oryx:resize="vertical horizontal" x="0" y="0" width="100" height="80" rx="10" ry="10" stroke="#000000" stroke-width="1" fill="url(#_FCF24FED-5D5E-4C2C-8D64-5174B9E2F03Cbackground) #ffffcc"/> 		<text font-size="12" id="_FCF24FED-5D5E-4C2C-8D64-5174B9E2F03Ctext_name" x="50" y="40" oryx:align="middle center" oryx:fittoelem="text_frame" stroke="black" text-anchor="middle" stroke-width="0pt" letter-spacing="-0.01px" fill="#000000" transform="rotate(0 50 40)" visibility="inherit" oryx:fontSize="12"><tspan x="50" y="40" dy="5">Hello Case</tspan></text>     <g id="_FCF24FED-5D5E-4C2C-8D64-5174B9E2F03CmanualTask" transform="scale(0.7,0.7) translate(8,8)" display="none">     	<path oryx:anchors="top left" id="_FCF24FED-5D5E-4C2C-8D64-5174B9E2F03Cframe" style="opacity:1;fill:none;fill-opacity:1;stroke-width:1" d="M0.5,3.751l4.083-3.25c0,0,11.166,0.083,12.083,0.083s-2.417,2.917-1.5,2.917     s11.667,0,12.584,0c1.166,1.708-0.168,3.167-0.834,3.667s0.875,1.917-1,4.417c-0.75,0.25,0.75,1.875-1.333,3.333     c-1.167,0.583,0.583,1.542-1.25,2.833c-1.167,0-20.833,0.083-20.833,0.083l-2-1.333V3.751z" stroke="#000000"/> 		<path id="_FCF24FED-5D5E-4C2C-8D64-5174B9E2F03Cframe2" oryx:anchors="top left" style="opacity:1;fill:none;stroke-width:2" d="M 13.5 7 L 27 7" stroke="#000000"/> 		<path id="_FCF24FED-5D5E-4C2C-8D64-5174B9E2F03Cframe3" oryx:anchors="top left" style="opacity:1;fill:none;stroke-width:2" d="M 13.5 11 L 26 11" stroke="#000000"/> 		<path id="_FCF24FED-5D5E-4C2C-8D64-5174B9E2F03Cframe4" oryx:anchors="top left" style="opacity:1;fill:none;stroke-width:1.5" d="M 14 14.5 L 25 14.5" stroke="#000000"/> 		<path id="_FCF24FED-5D5E-4C2C-8D64-5174B9E2F03Cframe5" oryx:anchors="top left" style="opacity:1;fill:none;stroke-width:1.5" d="M 8.2 3.1 L 15 3.1" stroke="#000000"/> 	</g> 	 	<g id="_FCF24FED-5D5E-4C2C-8D64-5174B9E2F03CbusinessRuleTask" transform="scale(0.7,0.7) translate(8,8)" display="none"> 		<rect id="_FCF24FED-5D5E-4C2C-8D64-5174B9E2F03Cframe6" oryx:anchors="top left" x="0" y="0" width="22" height="4" style="opacity:1;fill:#B3B1B3;fill-opacity:1;" stroke="#000000"/> 		<rect id="_FCF24FED-5D5E-4C2C-8D64-5174B9E2F03Cframe7" oryx:anchors="top left" x="0" y="4" style="opacity:1;fill:none;" width="22" height="12" stroke="#000000"/> 		<path id="_FCF24FED-5D5E-4C2C-8D64-5174B9E2F03Cframe8" oryx:anchors="top left" style="opacity:1;fill:none;" d="M 0 10 L 22 10" stroke="#000000"/> 		<path id="_FCF24FED-5D5E-4C2C-8D64-5174B9E2F03Cframe9" oryx:anchors="top left" style="opacity:1; fill:none;" d="M 7 4 L 7 16" stroke="#000000"/> 	</g> 	 	<g id="_FCF24FED-5D5E-4C2C-8D64-5174B9E2F03CscriptTask" transform="scale(0.7,0.7) translate(8,8)" display="inherit"> 		<path oryx:anchors="top left" id="_FCF24FED-5D5E-4C2C-8D64-5174B9E2F03Cframe10" style="opacity:1;fill:none;" stroke="#000000" d="M6.402,0.5h14.5c0,0-5.833,2.833-5.833,5.583s4.417,6,4.417,9.167    s-4.167,5.083-4.167,5.083H0.235c0,0,5-2.667,5-5s-4.583-6.75-4.583-9.25S6.402,0.5,6.402,0.5z"/> 		<path oryx:anchors="top left" id="_FCF24FED-5D5E-4C2C-8D64-5174B9E2F03Cframe11" style="opacity:1;fill:none;stroke-width:1.5" d="M 3.5 4.5 L 13.5 4.5" stroke="#000000"/> 		<path oryx:anchors="top left" id="_FCF24FED-5D5E-4C2C-8D64-5174B9E2F03Cframe12" style="opacity:1;fill:none;stroke-width:1.5" d="M 3.8 8.5 L 13.8 8.5" stroke="#000000"/> 		<path oryx:anchors="top left" id="_FCF24FED-5D5E-4C2C-8D64-5174B9E2F03Cframe13" style="opacity:1;fill:none;stroke-width:1.5" d="M 6.3 12.5 L 16.3 12.5" stroke="#000000"/> 		<path oryx:anchors="top left" id="_FCF24FED-5D5E-4C2C-8D64-5174B9E2F03Cframe14" style="opacity:1;fill:none;stroke-width:1.5" d="M 6.5 16.5 L 16.5 16.5" stroke="#000000"/> 	</g> 	 	<g id="_FCF24FED-5D5E-4C2C-8D64-5174B9E2F03CuserTask" transform="scale(0.7,0.7) translate(8,8)" display="none"> 		<path id="_FCF24FED-5D5E-4C2C-8D64-5174B9E2F03Cframe15" oryx:anchors="top left" style="opacity:1;fill:#F4F6F7" stroke="#000000" d="M0.585,24.167h24.083v-7.833c0,0-2.333-3.917-7.083-5.167h-9.25    c-4.417,1.333-7.833,5.75-7.833,5.75L0.585,24.167z"/> 		<path id="_FCF24FED-5D5E-4C2C-8D64-5174B9E2F03Cframe16" oryx:anchors="top left" style="opacity:1;fill:none" d="M 6 20 L 6 24" stroke="#000000"/> 		<path id="_FCF24FED-5D5E-4C2C-8D64-5174B9E2F03Cframe17" oryx:anchors="top left" style="opacity:1;fill:none" d="M 20 20 L 20 24" stroke="#000000"/> 		<circle id="_FCF24FED-5D5E-4C2C-8D64-5174B9E2F03Cframe18" oryx:anchors="top left" fill="black" cx="13.002" cy="5.916" r="5.417" stroke="#000000"/> 		<path id="_FCF24FED-5D5E-4C2C-8D64-5174B9E2F03Cframe19" oryx:anchors="top left" style="opacity:1;fill:#F0EFF0;" stroke="#000000" d="M8.043,7.083c0,0,2.814-2.426,5.376-1.807s4.624-0.693,4.624-0.693    c0.25,1.688,0.042,3.75-1.458,5.584c0,0,1.083,0.75,1.083,1.5s0.125,1.875-1,3s-5.5,1.25-6.75,0S8.668,12.834,8.668,12    s0.583-1.25,1.25-1.917C8.835,9.5,7.419,7.708,8.043,7.083z"/> 	</g> 	 	<g id="_FCF24FED-5D5E-4C2C-8D64-5174B9E2F03CserviceTask" transform="scale(0.7,0.7) translate(8,8)" display="none"> 		<polygon oryx:anchors="top left" id="_FCF24FED-5D5E-4C2C-8D64-5174B9E2F03Cframe20" style="opacity:1;fill:#ffffff" stroke="#000000" points="15.392,5.064 17.954,2.502 20.347,4.895 17.786,7.455     18.729,9.732 22.353,9.732 22.353,13.115 18.731,13.115 17.788,15.392 20.351,17.955 17.958,20.347 15.397,17.786 13.12,18.729     13.12,22.353 9.737,22.353 9.737,18.731 7.46,17.788 4.897,20.35 2.506,17.958 5.066,15.397 4.124,13.12 0.5,13.12 0.5,9.737     4.121,9.737 5.065,7.461 2.503,4.898 4.895,2.506 7.455,5.066 9.732,4.125 9.732,0.5 13.116,0.5 13.116,4.121 "/> 		<circle oryx:anchors="top left" id="_FCF24FED-5D5E-4C2C-8D64-5174B9E2F03Cframe21" style="opacity:1;fill:none" stroke="#000000" cx="11.427" cy="11.426" r="3.714"/> 		<polygon oryx:anchors="top left" id="_FCF24FED-5D5E-4C2C-8D64-5174B9E2F03Cframe22" style="opacity:1;fill:#ffffff" stroke="#000000" points="21.392,11.064 23.954,8.502 26.347,10.895 23.786,13.455     24.729,15.732 28.353,15.732 28.353,19.115 24.731,19.115 23.788,21.392 26.351,23.955 23.958,26.347 21.397,23.786 19.12,24.729     19.12,28.353 15.737,28.353 15.737,24.731 13.46,23.788 10.897,26.35 8.506,23.958 11.066,21.397 10.124,19.12 6.5,19.12     6.5,15.737 10.121,15.737 11.065,13.461 8.503,10.898 10.895,8.506 13.455,11.066 15.732,10.125 15.732,6.5 19.116,6.5     19.116,10.121 "/> 		<circle oryx:anchors="top left" id="_FCF24FED-5D5E-4C2C-8D64-5174B9E2F03Cframe23" style="opacity:1;fill:none;" stroke="#000000" cx="17.427" cy="17.426" r="3.714"/> 	</g> 	 	<g id="_FCF24FED-5D5E-4C2C-8D64-5174B9E2F03CsendTask" display="none"> 		<path id="_FCF24FED-5D5E-4C2C-8D64-5174B9E2F03Cstframe24" oryx:anchors="left top" stroke="#FFFFFF" fill="black" stroke-width="1" d="M8,11 L8,21 L24,21 L24,11 L16,17z"/> 		<path id="_FCF24FED-5D5E-4C2C-8D64-5174B9E2F03Cstframe25" oryx:anchors="left top" stroke="#FFFFFF" fill="black" stroke-width="1" d="M7,10 L16,17 L25 10z"/> 	</g> 	 	<g id="_FCF24FED-5D5E-4C2C-8D64-5174B9E2F03CreceiveTask" display="none"> 		<path id="_FCF24FED-5D5E-4C2C-8D64-5174B9E2F03Cframe26" oryx:anchors="left top" stroke="#000000" fill="none" stroke-width="1" d="M8,11 L8,21 L24,21 L24,11z M8,11 L16,17 L24,11"/> 	</g> 	 	<g id="_FCF24FED-5D5E-4C2C-8D64-5174B9E2F03Cnone" display="inherit"/>  	<g id="_FCF24FED-5D5E-4C2C-8D64-5174B9E2F03Csequential" display="none">         <path oryx:anchors="bottom" fill="none" stroke="#000000" stroke-width="2" d="M46,76h10M46,72h10 M46,68h10" id="_FCF24FED-5D5E-4C2C-8D64-5174B9E2F03C__FCF24FED-5D5E-4C2C-8D64-5174B9E2F03C_20"/>     </g>   </g></g><g class="children" style="overflow:hidden"/><g class="edge"/></g><g class="controls"><g class="dockers"/><g class="magnets" transform="translate(210, 150)"><g pointer-events="all" display="none" transform="translate(-7, 12)"><circle cx="8" cy="8" r="4" stroke="none" fill="red" fill-opacity="0.3"/></g><g pointer-events="all" display="none" transform="translate(-7, 32)"><circle cx="8" cy="8" r="4" stroke="none" fill="red" fill-opacity="0.3"/></g><g pointer-events="all" display="none" transform="translate(-7, 52)"><circle cx="8" cy="8" r="4" stroke="none" fill="red" fill-opacity="0.3"/></g><g pointer-events="all" display="none" transform="translate(17, 71)"><circle cx="8" cy="8" r="4" stroke="none" fill="red" fill-opacity="0.3"/></g><g pointer-events="all" display="none" transform="translate(42, 71)"><circle cx="8" cy="8" r="4" stroke="none" fill="red" fill-opacity="0.3"/></g><g pointer-events="all" display="none" transform="translate(67, 71)"><circle cx="8" cy="8" r="4" stroke="none" fill="red" fill-opacity="0.3"/></g><g pointer-events="all" display="none" transform="translate(91, 12)"><circle cx="8" cy="8" r="4" stroke="none" fill="red" fill-opacity="0.3"/></g><g pointer-events="all" display="none" transform="translate(91, 32)"><circle cx="8" cy="8" r="4" stroke="none" fill="red" fill-opacity="0.3"/></g><g pointer-events="all" display="none" transform="translate(91, 52)"><circle cx="8" cy="8" r="4" stroke="none" fill="red" fill-opacity="0.3"/></g><g pointer-events="all" display="none" transform="translate(17, -7)"><circle cx="8" cy="8" r="4" stroke="none" fill="red" fill-opacity="0.3"/></g><g pointer-events="all" display="none" transform="translate(42, -7)"><circle cx="8" cy="8" r="4" stroke="none" fill="red" fill-opacity="0.3"/></g><g pointer-events="all" display="none" transform="translate(67, -7)"><circle cx="8" cy="8" r="4" stroke="none" fill="red" fill-opacity="0.3"/></g><g pointer-events="all" display="none" transform="translate(42, 32)"><circle cx="8" cy="8" r="4" stroke="none" fill="red" fill-opacity="0.3"/></g></g></g></g></g><g class="edge"><g id="_A1104BC3-6DF4-42F2-9056-1CC6D9EDD99F" bpmn2nodeid="_9416317C-E67E-479A-A120-DE066A3AB94E"><g class="stencils"><g class="me"><g pointer-events="painted" bpmn2nodeid="_8D4FE9E0-FF65-415F-AECC-C0447F760FB0"><path id="_A1104BC3-6DF4-42F2-9056-1CC6D9EDD99F_1" d="M528.89453125 190L704.8203125 190 " stroke="#000000" fill="none" stroke-width="2" stroke-linecap="round" stroke-linejoin="round" marker-start="url(#_A1104BC3-6DF4-42F2-9056-1CC6D9EDD99Fstart)" marker-end="url(#_A1104BC3-6DF4-42F2-9056-1CC6D9EDD99Fend)"/></g><text id="_A1104BC3-6DF4-42F2-9056-1CC6D9EDD99Ftext_name" font-size="12" x="542.89453125" y="176" oryx:edgePosition="startTop" stroke-width="0pt" letter-spacing="-0.01px" fill="#000000" text-anchor="start" transform="rotate(360 528.89453125 190)" visibility="inherit" oryx:fontSize="12"/></g><g class="children" style="overflow:hidden"/><g class="edge"/></g><g class="controls"><g class="dockers"/><g class="magnets"/></g></g><g id="_1466BC80-548B-4472-AE1E-D975F37741DD" bpmn2nodeid="_00D79ACB-077B-4438-AAF4-4CCDD281B460"><g class="stencils"><g class="me"><g pointer-events="painted" bpmn2nodeid="_52A00C18-4B6C-4B59-A432-FAD64B88FF09"><path id="_1466BC80-548B-4472-AE1E-D975F37741DD_1" d="M310.390625 190L427.609375 190 " stroke="#000000" fill="none" stroke-width="2" stroke-linecap="round" stroke-linejoin="round" marker-start="url(#_1466BC80-548B-4472-AE1E-D975F37741DDstart)" marker-end="url(#_1466BC80-548B-4472-AE1E-D975F37741DDend)"/></g><text id="_1466BC80-548B-4472-AE1E-D975F37741DDtext_name" font-size="12" x="324.390625" y="176" oryx:edgePosition="startTop" stroke-width="0pt" letter-spacing="-0.01px" fill="#000000" text-anchor="start" transform="rotate(360 310.390625 190)" visibility="inherit" oryx:fontSize="12"/></g><g class="children" style="overflow:hidden"/><g class="edge"/></g><g class="controls"><g class="dockers"/><g class="magnets"/></g></g></g><text id="_8F01BB3C-E59E-4840-B011-C36341782044" style="stroke-width:1;fill:rgb(177,194,214);font-family:arial;font-weight:bold" font-size="12" onclick="ORYX.Plugins.CanvasTitle.openTextualAnalysis()" onmouseover="ORYX.Plugins.CanvasTitle.addToolTip('_8F01BB3C-E59E-4840-B011-C36341782044')" transform="translate(10, 20)">reproducer-case v.1.0 (reproducer-case)</text></g></g></svg>